<svg xmlns="http://www.w3.org/2000/svg" viewBox="0 0 128 128"><path d="M38.1 62.3l-3.5 11.6h6.9l-3.4-11.6zm26.2-6.1c-1 0-1.8.1-2.5.4-.7.2-1.5.6-2.3 1.2v15.9c1.5.8 3 1.2 4.5 1.2 3.5 0 5.3-2.7 5.3-8.1 0-2.8-.5-5-1.4-6.4-.9-1.5-2.1-2.2-3.6-2.2z" fill="#F7A80D"/><path d="M64 4C30.9 4 4 30.9 4 64s26.9 60 60 60 60-26.9 60-60S97.1 4 64 4zM47 81.2H42l-2-6.8h-9.4l-2 6.8h-4.8l9.2-30.5h5.1L47 81.2zm18.5 0h-4.4V77c-1.9 1.4-3.6 2.3-5.1 2.9-1.5.5-3.1.8-4.6.8-2.5 0-4.5-.8-5.9-2.5-1.4-1.6-2.1-3.9-2.1-6.8V55.8h4.4v14.1c0 2.3.4 3.9 1.2 5 .8 1 2 1.6 3.8 1.6 1.5 0 3.2-.5 5.1-1.4l.4-.2v-19h4.4v26.4h-1.2zm27.1-3.7c-1.7 2.7-4.4 4-8.1 4-2.1 0-4-.5-5.8-1.5v12.3l-4.4 1V55.8h4.4v2.7c2.4-2.2 4.9-3.3 7.7-3.3 2.8 0 4.9 1.1 6.3 3.2 1.5 2.1 2.2 5.1 2.2 8.9 0 4.4-.8 7.7-2.3 10.2z" fill="#F7A80D"/></svg>
