<svg xmlns="http://www.w3.org/2000/svg" viewBox="0 0 128 128"><path d="M93.8 73.4l-5-16c-.6-2-1.9-3.6-3.6-4.5-1.7-.9-3.7-1.1-5.6-.5L36.3 65.6l-.4.2c-.2.1-.3.3-.3.5 0 .2.1.4.3.5l1.5 1c1.5 1.1 3.3 1.6 5.2 1.5l27.7-1c.5 0 .9.1 1.2.4.3.3.3.8.2 1.2-.3.8-1 1.3-1.8 1.4l-28.5 1c-3.3.1-6.5-1.1-8.9-3.3l-3.5-3c-.2-.1-.4-.2-.6-.1-.2 0-.4.2-.4.4l-.6 2.2c-.8 2.7-.4 5.7 1.1 8.1 1.5 2.4 3.9 4 6.7 4.4h56.2c.5 0 1-.4 1.1-.9l.7-2.5c.8-2.7.4-5.6-1.2-7.9z" fill="#F48120"/><path d="M101.7 54c-.4 0-.8 0-1.2.1-.3 0-.6.2-.7.5l-1.4 4.8c-.8 2.7-.4 5.7 1.1 8.1 1.5 2.4 3.9 4 6.7 4.4h9c.5 0 1-.4 1.1-.9l.8-2.8c.3-1 .1-2.1-.4-3-.5-.9-1.4-1.6-2.4-1.8l-3-.6c-.5-.1-.9-.4-1.1-.8-.2-.4-.2-.9 0-1.3 1.8-3.8-1.1-6.6-4.6-6.7h-3.9z" fill="#FAAD3F"/></svg>
