<svg xmlns="http://www.w3.org/2000/svg" viewBox="0 0 128 128"><path d="M64 119.2L87.4 47H40.6z" fill="#E24329"/><path d="M64 119.2L40.6 47H8.5z" fill="#FC6D26"/><path d="M8.5 47l-7.1 21.8c-.6 2 .1 4.2 1.9 5.5L64 119.2z" fill="#FCA326"/><path d="M8.5 47h32.1L27 5.4c-.7-2.1-3.7-2.1-4.4 0z" fill="#E24329"/><path d="M64 119.2L87.4 47h32.1z" fill="#FC6D26"/><path d="M119.5 47l7.1 21.8c.6 2-.1 4.2-1.9 5.5L64 119.2z" fill="#FCA326"/><path d="M119.5 47H87.4l13.6-41.6c.7-2.1 3.7-2.1 4.4 0z" fill="#E24329"/></svg>
