<svg xmlns="http://www.w3.org/2000/svg" viewBox="0 0 320 320"><path d="M297.1 138.3c7.3-21.3 3.6-44.9-9.9-63.3-20.3-27.6-56.5-39-89.2-28.1C183.2 31.6 164.7 22 145 22c-28.3 0-53.6 17.5-63.6 44-22.3 3.3-41.4 17.4-51.2 37.8-13.5 28.3-8.2 62.3 13.1 84.6-7.3 21.3-3.6 44.9 9.9 63.3 20.3 27.6 56.5 39 89.2 28.1 14.8 15.3 33.3 24.9 53 24.9 28.3 0 53.6-17.5 63.6-44 22.3-3.3 41.4-17.4 51.2-37.8 13.5-28.3 8.2-62.3-13.1-84.6zm-132.9 155c-15.2 0-29.5-5.5-40.8-15.5l2-1.1 67.7-39.1c3.5-2 5.6-5.6 5.6-9.6v-95.4l28.6 16.5c.3.2.5.5.6.9v79c-.3 35.1-28.9 63.5-63.7 64.3zm-137-58.1c-7.6-13.1-10.3-28.5-7.7-43.4l2 1.2 67.7 39.1c3.4 2 7.7 2 11.1 0l82.7-47.8v33.1c0 .4-.2.7-.5 1L114.7 257c-30.4 17.5-69.3 7.1-86.5-23.8zm-17.8-149c7.6-13.1 19.5-23 33.7-28V161c0 3.9 2 7.5 5.4 9.5l82.7 47.8-28.6 16.5c-.3.2-.7.2-1 .1l-68.7-39.7c-30.3-17.6-40.7-56.5-23.5-86.9zm235.5 54.8L162.2 93.2l28.6-16.5c.3-.2.7-.2 1-.1l68.7 39.7c30.4 17.6 40.8 56.6 23.4 87-7.5 13.1-19.5 23-33.7 28v-62.8c0-3.9-2-7.6-5.5-9.5zm28.5-43.7l-2-1.2-67.7-39.1c-3.4-2-7.7-2-11.1 0l-82.7 47.8V71.7c0-.4.2-.7.5-1l68.7-39.6c30.5-17.6 69.4-7 86.5 23.8 7.6 13.2 10.4 28.6 7.8 43.4zM112.4 175.4l-28.6-16.5c-.3-.2-.5-.5-.6-.9V79c.1-35.2 28.9-63.7 64.1-63.6 15.1 0 29.4 5.4 40.7 15.3l-2 1.1-67.7 39.1c-3.5 2-5.6 5.6-5.6 9.6l-.3 95zm15.6-33.5l36.8-21.3 36.8 21.3v42.5l-36.8 21.3-36.8-21.3v-42.5z" fill="#10a37f"/></svg>
