<svg xmlns="http://www.w3.org/2000/svg" viewBox="0 0 128 128"><path d="M93.8 25.3C88.6 19.5 81 16 72.6 15.5c-5.8-.3-11.2.9-15.7 3.1-2.7-1.1-5.8-1.8-9.2-1.8-7 0-13.2 3-17.4 7.8C25 30.2 22.1 38 22.1 47c0 12.3 3.7 26.2 9.6 35.2 3.2 4.8 7 8 11.1 8.7.6.1 1.3.2 1.9.2 2.7 0 5.2-1.3 7.3-3.5.5 1.3 1 2.4 1.5 3.4 2 3.7 4.5 5.6 7.5 5.6h.3c3.3-.2 6-2.7 8-5.3l1-1.4c.6 1.4 1.3 2.6 2.1 3.5 2.4 2.8 5.3 3.6 7.9 3.6 1.3 0 2.5-.2 3.6-.6 5.5-1.9 9-7.2 10.6-16.1.4-2.2.7-4.7.9-7.3 2.9-2 5.4-4.7 7.3-8 4.3-7.4 5.3-16.7 2.7-25.2-1.7-5.3-4.5-10.4-8.6-14.5z" fill="#336791"/><path d="M89.3 76.2c-.2 3.3-.6 6.3-1.1 8.8-1.3 7.3-3.9 11.3-7.6 12.6-2.6.9-5.3.2-7-2.2-1.8-2.4-2.9-6.4-3.1-11.2l-.2-7.5c0-3.6-.3-6.8-.9-9.4 3.7-2.2 6.4-5 8.2-8.2 2.2-4 3.1-8.6 2.6-13.4-.3-2.8-1-5.4-2.1-7.6 5.3.8 10 3.2 13.5 7.2 3.5 3.7 6 8.2 7.4 13 2.3 7.4 1.4 15.5-2.2 21.8-1.8 3-4.2 5.5-7 7.3l-.5-10.2zm-5.5-30.6c.3 3.8-.3 7.4-2 10.5-1.6 2.9-4 5.2-7.2 7-.4-1.5-.5-2.6-.5-2.6l-.7-12.4c-.2-3.5-1-6.4-2.3-8.8-1-1.8-.3-3 .3-3.5 1.7-1.4 4-2.2 6.5-2.2h.3c2.5.2 4.3 1.8 5.1 4.5.3 1.3.5 4.6.5 7.5zm-30-24.4c2.6 0 4.9.5 7 1.5-3.8 2.4-6.8 5.5-8.8 9.3-2.3 4.2-3.2 9-2.7 14-.1 2.3.3 4.9.8 7.4l-5.7 8.7c-2.2 3.5-3.8 7.4-4.9 11.5-.5-.3-1-.7-1.4-1.2-2.5-2.7-4.6-7.6-4.6-17 0-15.2 7.5-27.3 16.6-32.5 1.2-.6 2.4-1.1 3.7-1.7zm7.9 68.6c-1.6 2.3-3.4 3.8-5.2 3.9-1.4.1-2.8-1-4.1-3.4-2.4-4.4-3.8-11.4-3.8-18.5 0-1.7.1-3.3.2-4.8 1-3.7 2.5-7.1 4.4-10.2l5.3-8.2c.9 3.3 1.1 8.1 1.1 11.1l.7 12.4s.2 1.4.8 3.7c.7 2.8.8 9.8.6 14zm-17.4-4.5c-.6 1.9-1.5 3.2-2.7 3.8-1.8-1-3.4-2.7-5.7-5.8C30.6 76 27 63 27 51.5c0-8.2 2.4-15 6.4-19.7 3.5-4.1 8.5-6.6 14.3-6.6h.3c-.5.3-1 .5-1.5.8C36.2 31.6 28 44.8 28 61.2c0 10.1 2.3 15.5 5.4 18.9 1.4 1.5 2.8 2.3 4.1 2.6.3 1.2 1.6 2.4 3.2 2.6h.7c.3 0 .6 0 .9-.1z" fill="#fff"/></svg>
