<svg xmlns="http://www.w3.org/2000/svg" viewBox="0 0 128 128"><linearGradient id="a" x1="26.2" y1="22.7" x2="62.5" y2="63.8" gradientUnits="userSpaceOnUse"><stop stop-color="#387EB8"/><stop offset="1" stop-color="#366994"/></linearGradient><path fill="url(#a)" d="M63.4 8.2c-3.3 0-6.5.3-9.3.8-8.4 1.7-9.9 5.1-9.9 11.5v8.4h19.8v2.8H35.7c-5.7 0-10.8 3.5-12.3 10-1.8 7.5-1.9 12.2 0 20.1 1.4 5.8 4.7 10 10.4 10h6.7V62c0-6.5 5.6-12.3 12.3-12.3h19.8c5.5 0 9.9-4.5 9.9-10V21.5c0-5.3-4.5-9.3-9.9-10.2-3.4-.6-7-.8-9.2-1.1zM53 16.9c2 0 3.7 1.7 3.7 3.8s-1.6 3.7-3.7 3.7-3.7-1.6-3.7-3.7c0-2.1 1.6-3.8 3.7-3.8z"/><linearGradient id="b" x1="67.5" y1="107.5" x2="100.3" y2="69.3" gradientUnits="userSpaceOnUse"><stop stop-color="#FFE052"/><stop offset="1" stop-color="#FFC331"/></linearGradient><path fill="url(#b)" d="M92.1 31.7V41c0 6.8-5.8 12.6-12.3 12.6H60c-5.4 0-9.9 4.6-9.9 10v18.2c0 5.3 4.6 8.5 9.9 10 6.4 1.8 12.5 2.1 19.8 0 4.9-1.4 9.9-4.2 9.9-10V73.4H70v-2.8h29.7c5.7 0 7.9-4 9.9-10 2.1-6.2 2-12.1 0-20.1-1.4-5.7-4.2-10-9.9-10H92.1zM75.6 85.7c2 0 3.7 1.6 3.7 3.7 0 2.1-1.6 3.8-3.7 3.8s-3.7-1.7-3.7-3.8c0-2 1.6-3.7 3.7-3.7z"/></svg>
