<svg xmlns="http://www.w3.org/2000/svg" viewBox="0 0 73.76 63.14"><g id="Layer_2" data-name="Layer 2"><g id="Layer_1-2" data-name="Layer 1" ><path d="M46.52,40.59,50,43.87A35.62,35.62,0,0,1,39.9,46.29a79.1,79.1,0,0,1,0,16.71H32.77a3.47,3.47,0,0,1,1.89-2.33,2,2,0,0,0,1.18-2.6c-.64-2.76-1.2-5.55-2.07-8.25-2.76-8.56-8.44-15-16-20C14,27.28,9.93,25,6,22.52q-2.47-1.57-4.79-3.37a2.94,2.94,0,0,1-.82-3.93,15.9,15.9,0,0,1,1.44-2.5,2.78,2.78,0,0,1,1.42-1A2.54,2.54,0,0,0,5,10.23a8,8,0,0,1,9.76-3.49L15.5,7c1.36-2.27,2.68-4.45,4-6.64A3.17,3.17,0,0,1,19.87,0a15.43,15.43,0,0,1,1.88,6.08,20.33,20.33,0,0,1-.52,8.07A22.81,22.81,0,0,1,19.47,18c1.62-.37,2.35-1.8,3-3.38,1.39,1.66,2.74,3.24,4,4.84a13.72,13.72,0,0,0,11.18,5.22c4.09,0,8.19,0,12.28.11a19.81,19.81,0,0,0,4-.34,2.68,2.68,0,0,1,2.86.75c.8,1,1.82.82,2.92-.14.57,1,.22,1.85-.89,1.86a12.85,12.85,0,0,1-2.62-.54c-.47-.09-.95-.14-1.42-.22l-.09.35c.37.22.73.46,1.1.67,4.58,2.62,7.83,6.21,8.89,11.41a4.17,4.17,0,0,0,.58,1.25A65.29,65.29,0,0,1,73.76,63H65.6a4.61,4.61,0,0,1,2.54-2.69,1,1,0,0,0,.71-1.37C67,50.52,61.9,45,53.4,42.51c-2.23-.67-4.44-1.4-6.66-2.1Z"/><path d="M10.76,27.44c5.77,4.55,11.08,9.49,15,15.73C26.88,45,27,47,27.07,49A38.1,38.1,0,0,1,25.54,62.1a1.18,1.18,0,0,1-1.41,1c-2.07-.06-4.15,0-6.24,0,.42-1.8,2.12-3,4.79-3.36-.1-1.55-1.57-.92,2.86,2.39-.65-3.46-4.63-14-5.43-17.41a2.34,2.34,0,0,0-.9-1.22,11,11,0,0,1-4.8-8.58,11.32,11.32,0,0,0-2.69-6.2Z"/><path d="M44.7,47.56l6.75-2A9.08,9.08,0,0,0,52.8,53.4c-1.92,2.64-3.94,5.11-5.58,7.8-.91,1.49-1.86,2.14-3.58,1.88a15.68,15.68,0,0,0-2.18,0c.25-1.32-.1-2.52,1.47-3.48A7.91,7.91,0,0,0,45.26,48.4C45.07,48.13,44.89,47.86,44.7,47.56Z"/><path d="M13.17.82l1.52,4.73-2.89-.4L12.91.78Z"/></g></g></svg>